<?xml version="1.0" encoding="UTF-8"?>
<svg id="Layer_2" data-name="Layer 2" xmlns="http://www.w3.org/2000/svg" viewBox="0 0 155.16 128.12">
  <g id="almond-v-icon">
    <g>
      <path d="M106.1,0s-69.74,36.68-34.63,71.96c0,0,45.46.33,34.63-71.96Z" fill="#708c3b"/>
      <path d="M103.16,7.12c-9.23,12.15-30.78,38.88-29.92,53.89.14,1.37.51,2.73,1.19,3.95-.8-1.15-1.3-2.51-1.53-3.91-1.93-15.88,19.64-42.54,30.26-53.94h0Z" fill="#334620"/>
      <path d="M89.55,11.92c-.53,2.76-1.28,5.4-1.9,8.06-.31,1.89-1.93,6.42.33,7.39-.34,0-.74-.08-1.03-.35-2.85-3.28.6-11.81,2.6-15.09h0Z" fill="#334620"/>
      <path d="M76.36,23.49c.61,2.75.95,5.48,1.44,8.17.47,1.86.76,6.67,3.23,6.67-.32.13-.71.22-1.09.08-3.91-1.84-4.13-11.14-3.58-14.92h0Z" fill="#334620"/>
      <path d="M65.01,39.57c1.21,3.09,2.17,6.25,3.33,9.34.88,1.99,2.46,7.92,5.31,7.04-.34.23-.77.43-1.24.37-4.77-1.2-7.11-12.39-7.4-16.75h0Z" fill="#334620"/>
      <path d="M105.76,19.64c-2.63,3.04-14.97,12.38-18.13,7.25,2.83,3.48,14.64-5.62,18.13-7.25h0Z" fill="#334620"/>
      <path d="M103.56,38.71c-3.76,1.11-7.63,1.68-11.54,1.94-3.37.06-7.16.38-10.18-1.41-.41-.3-.77-.74-.81-1.24.42.93,1.44,1.14,2.33,1.32,2.83.42,5.72.19,8.58.06,3.85-.21,7.7-.56,11.61-.66h0Z" fill="#334620"/>
      <path d="M95.46,57.35c-5.02,1.23-17.51,2.91-21.5-.71-.35-.41-.45-.98-.28-1.44-.08,2.96,8.11,2.18,10.23,2.31,3.83-.04,7.67-.22,11.55-.16h0Z" fill="#334620"/>
    </g>
    <g>
      <path d="M41.53,65.77c1.84,4.92,2.26,10.68.29,15.63.34-5.27-.05-10.35-.29-15.63h0Z" fill="#dba871"/>
      <path d="M24.52,77.92l-.2,1.42s.86.11.2-1.42Z" fill="#92391f"/>
      <path d="M19.41,67.04l-.46,2.01s1.39.17.46-2.01Z" fill="#92391f"/>
      <g>
        <path d="M28.55,100.34h0C7.82,78.9,7.37,42.4,30.59,21.84L52.55,2.39l13.37,20.26c16.92,25.64,13.19,57.82-6.26,74.91l-4.77,4.19c-7.46,6.55-19.1,6.08-26.33-1.41Z" fill="#cca27f"/>
        <path d="M42.59,107.64c-5.41,0-10.86-2.16-14.96-6.41-10.64-11-16.39-26.28-15.78-41.92.58-15.08,6.94-28.73,17.9-38.44L52.8.45l14.19,21.49c16.88,25.58,14.09,58.5-6.49,76.58l-4.78,4.19c-3.76,3.3-8.43,4.93-13.13,4.93ZM52.29,4.32l-20.85,18.47c-10.43,9.24-16.48,22.24-17.03,36.62-.58,14.94,4.91,29.54,15.06,40.04h0c6.71,6.95,17.51,7.53,24.56,1.33l4.78-4.19c19.62-17.24,22.22-48.72,6.04-73.24l-12.56-19.03Z" fill="#fff"/>
      </g>
      <path d="M44.72,12.4c-5.77,5.8-11.78,11.15-17.04,17.45,3.89-7.23,10.27-12.95,17.04-17.45h0Z" fill="#dba871"/>
      <path d="M18.9,67.42c1.07,10.73,4.25,21.84,11.6,29.97.95,1.2,2.25,2.24,3.32,3.32-10.78-7.07-15.45-20.83-14.93-33.29h0Z" fill="#dba871"/>
      <path d="M68.79,31.75c4.77,9.53,8.29,21.65,4.87,32.12,1.74-10.93-1.61-21.78-4.87-32.12h0Z" fill="#dba871"/>
      <path d="M65.45,86.85c-1.56,4.39-4.64,8.5-8.87,10.6,3.14-3.35,5.91-7.07,8.87-10.6h0Z" fill="#dba871"/>
      <path d="M50.71,90.07l1.69-3.13s2.03.99-1.69,3.13Z" fill="#92391f"/>
      <path d="M35.19,47.94l1.9-4.35s-2.75-1.53-1.9,4.35Z" fill="#92391f"/>
      <path d="M51.63,21.51v2.12s1.34-.07,0-2.12Z" fill="#92391f"/>
      <path d="M64.96,45.72l-1.22,2.87s1.76.67,1.22-2.87Z" fill="#92391f"/>
      <path d="M48.7,57.83l-.98.86s.53.61.98-.86Z" fill="#92391f"/>
    </g>
    <g>
      <path d="M135.06,48.66c-10.02-3.4-20.33-3.75-29.95-1.56-1.73-4.51-3.96-6.89-7.5-5.97-26.12,3.58-49.29,21.43-58.35,48.09h0c-4.91,14.46,2.83,30.15,17.29,35.06h0c21.01,7.13,43.02,3.98,60.58-6.74,4.13-1.08,4.72-4.7,3.62-10.36,12.54-6.27,22.72-17.27,27.59-31.6l6.83-20.1-20.1-6.83Z" fill="#fff"/>
      <path d="M116.07,115.85c-31.69-27.22-22.86-60.96-18.52-72.5-24.78,3.39-46.76,20.33-55.35,45.63h0c-4.66,13.71,2.69,28.61,16.4,33.26h0c19.93,6.77,40.81,3.78,57.47-6.39Z" fill="#cca27f"/>
      <path d="M116.07,115.85c-8.59,2.24-18.03-10.21-23.32-30.48-5.28-20.28-3.8-39.77,4.79-42.01,8.59-2.24,9.02,15.87,14.3,36.15,5.28,20.28,12.81,34.1,4.22,36.34Z" fill="#9f6131"/>
      <path d="M110.43,109.57c15.96-4.56,29.5-16.61,35.25-33.52l6.48-19.07-19.07-6.48c-11.87-4.03-24.19-3.55-35.09.51-.87,9.42-2.78,43.13,12.44,58.56Z" fill="#d1773d"/>
      <path d="M84.68,50.22s-17.01,5.78-24.04,13.97" fill="none"/>
      <path d="M44.01,95.94s-2.39,18.49,20.97,25.77" fill="none"/>
      <path d="M107.62,117.54s-7.77,4.57-12.81,4.98" fill="none"/>
      <path d="M146.91,59.22s-24.13-9.05-41.22-6l41.22,6Z" fill="#92391f"/>
      <path d="M143.41,63.73s-23.84,10.04-35.75,11.51l35.75-11.51Z" fill="#92391f"/>
      <path d="M144.8,70.63s-13.5,26.25-28.93,30.29c0,0,18.6-15.9,28.93-30.29Z" fill="#92391f"/>
      <path d="M80.44,64.46l-1.97-1.85s-2.24.87,1.97,1.85Z" fill="#92391f"/>
      <path d="M55.76,80.46l-2.38,1.27s.11,2.4,2.38-1.27Z" fill="#92391f"/>
      <path d="M93.63,109.83l-1.79-1.24s-1.15.56,1.79,1.24Z" fill="#92391f"/>
      <path d="M76.32,91.42l-2.47,1.1s-.06,2.4,2.47-1.1Z" fill="#92391f"/>
      <path d="M57.76,105.13l-.9-.31s-.35,1.04.9.31Z" fill="#92391f"/>
    </g>
    <g>
      <path d="M.01,52.99s71.59,32.15,42.63,65.7c0,0-43.47,1.47-42.63-65.7Z" fill="#708c3b"/>
      <path d="M3.77,59.51c11.27,9.88,35.34,33.67,36.06,48.8.03,1.38-.27,2.79-.93,3.99,1.11-2.55.6-5.39-.24-7.92-2.77-7.67-7.93-14.23-12.96-20.57-6.83-8.5-14.35-16.46-21.92-24.31h0Z" fill="#334620"/>
      <path d="M17.42,63.6c2.23,2.75,6.71,10.51,4.5,13.86-.26.28-.64.38-.96.39.31-.14.56-.33.7-.59.37-.85.09-1.8-.12-2.68-1.1-3.75-2.87-7.21-4.12-10.97h0Z" fill="#334620"/>
      <path d="M31.57,73.96c1.02,3.73,1.37,7.75.32,11.52-.32,1.17-1.4,2.98-2.83,2.33,2.37-.04,2.04-4.54,2.23-6.25.1-2.5.07-5.02.28-7.6h0Z" fill="#334620"/>
      <path d="M44.56,88.55c.56,2.99-1.11,17.9-6.1,15.38,2.86.69,3.57-4.63,4.17-6.6.7-2.91,1.2-5.85,1.94-8.77h0Z" fill="#334620"/>
      <path d="M2.94,71.16c3.11,1.47,6.09,3.1,9.14,4.56,2.19.89,7.32,3.96,9.18,1.68-.15.4-.43.79-.84,1.02-4.8,1.95-13.85-4.14-17.47-7.26h0Z" fill="#334620"/>
      <path d="M7.55,88.75c3.74-.02,7.42.2,11.11.3,2.17-.08,9.61.75,10.36-1.53.04.49-.32.94-.71,1.22-2.86,1.73-6.48,1.49-9.69,1.52-3.73-.15-7.45-.57-11.07-1.5h0Z" fill="#334620"/>
      <path d="M17.76,105.79c3.69-.17,7.35-.1,10.99-.16,1.82-.02,3.64-.07,5.43-.22,1.28-.18,2.72-.22,3.77-1.01.32-.26.48-.69.38-1.16.23.4.2.99-.13,1.38-3.66,3.44-15.66,2.17-20.44,1.17h0Z" fill="#334620"/>
    </g>
  </g>
</svg>