<?xml version="1.0" encoding="UTF-8"?>
<svg id="Layer_2" data-name="Layer 2" xmlns="http://www.w3.org/2000/svg" viewBox="0 0 153.86 136.16">
  <g id="almond-icon">
    <g>
      <path d="M30.8,68.64c2,5.33,2.44,11.57.31,16.93.36-5.71-.06-11.2-.31-16.93h0Z" fill="#dba871"/>
      <path d="M12.38,81.8l-.21,1.53s.93.12.21-1.53Z" fill="#92391f"/>
      <path d="M6.85,70.01l-.5,2.18s1.51.19.5-2.18Z" fill="#92391f"/>
      <path d="M16.75,106.08h0C-5.7,82.85-6.18,43.33,18.96,21.06L42.73,0l14.48,21.94c18.33,27.77,14.28,62.62-6.78,81.12l-5.17,4.54c-8.08,7.1-20.68,6.58-28.51-1.52Z" fill="#cca27f"/>
      <path d="M34.26,10.85c-6.23,6.26-12.77,12.09-18.45,18.9,4.22-7.84,11.11-14.01,18.45-18.9h0Z" fill="#dba871"/>
      <path d="M6.3,70.42c1.17,11.64,4.6,23.63,12.56,32.46,1.03,1.3,2.44,2.42,3.6,3.6-11.67-7.65-16.74-22.56-16.16-36.05h0Z" fill="#dba871"/>
      <path d="M60.32,31.8c5.15,10.25,8.98,23.52,5.27,34.78,1.88-11.84-1.74-23.59-5.27-34.78h0Z" fill="#dba871"/>
      <path d="M56.71,91.47c-1.69,4.75-5.02,9.2-9.6,11.48,3.4-3.63,6.4-7.65,9.6-11.48h0Z" fill="#dba871"/>
      <path d="M40.75,94.95l1.83-3.39s2.2,1.07-1.83,3.39Z" fill="#92391f"/>
      <path d="M23.93,49.33l2.06-4.71s-2.98-1.65-2.06,4.71Z" fill="#92391f"/>
      <path d="M41.75,20.71v2.29s1.45-.08,0-2.29Z" fill="#92391f"/>
      <path d="M56.18,46.93l-1.33,3.1s1.9.73,1.33-3.1Z" fill="#92391f"/>
      <path d="M38.56,60.04l-1.06.93s.58.66,1.06-.93Z" fill="#92391f"/>
    </g>
    <g>
      <path d="M132.09,50.11c-10.85-3.68-22.02-4.06-32.43-1.69-1.87-4.88-4.28-7.46-8.13-6.46-28.28,3.87-53.38,23.21-63.18,52.08h0c-5.32,15.65,3.06,32.65,18.72,37.97h0c22.75,7.73,46.59,4.32,65.61-7.3,4.48-1.17,5.11-5.1,3.92-11.21,13.58-6.79,24.61-18.71,29.88-34.22l7.39-21.77-21.77-7.39Z" fill="#fff"/>
      <path d="M111.52,122.87c-34.32-29.47-24.76-66.01-20.06-78.51-26.83,3.68-50.64,22.02-59.94,49.41h0c-5.04,14.85,2.91,30.98,17.76,36.02h0c21.58,7.33,44.2,4.09,62.24-6.92Z" fill="#cca27f"/>
      <path d="M111.52,122.87c-9.3,2.42-19.53-11.05-25.25-33.01-5.72-21.96-4.11-43.07,5.19-45.49s9.76,17.19,15.49,39.15,13.87,36.93,4.57,39.36Z" fill="#9f6131"/>
      <path d="M105.41,116.07c17.29-4.94,31.95-17.99,38.17-36.3l7.01-20.65-20.65-7.01c-12.86-4.37-26.19-3.85-38,.55-.94,10.2-3.01,46.71,13.47,63.42Z" fill="#d1773d"/>
      <path d="M77.53,51.8s-18.42,6.26-26.04,15.13" fill="none"/>
      <path d="M33.49,101.31s-2.59,20.02,22.71,27.9" fill="none"/>
      <path d="M102.37,124.7s-8.41,4.95-13.87,5.39" fill="none"/>
      <path d="M144.92,61.55s-26.13-9.8-44.64-6.5l44.64,6.5Z" fill="#92391f"/>
      <path d="M141.13,66.43s-25.82,10.88-38.72,12.47l38.72-12.47Z" fill="#92391f"/>
      <path d="M142.64,73.91s-14.62,28.43-31.33,32.8c0,0,20.14-17.22,31.33-32.8Z" fill="#92391f"/>
      <path d="M72.94,67.22l-2.13-2s-2.42.94,2.13,2Z" fill="#92391f"/>
      <path d="M46.22,84.55l-2.58,1.38s.12,2.59,2.58-1.38Z" fill="#92391f"/>
      <path d="M87.23,116.35l-1.93-1.34s-1.25.61,1.93,1.34Z" fill="#92391f"/>
      <path d="M68.48,96.41l-2.67,1.19s-.07,2.6,2.67-1.19Z" fill="#92391f"/>
      <path d="M48.38,111.26l-.97-.33s-.38,1.13.97.33Z" fill="#92391f"/>
    </g>
  </g>
</svg>