<?xml version="1.0" encoding="UTF-8"?>
<svg id="Layer_2" data-name="Layer 2" xmlns="http://www.w3.org/2000/svg" viewBox="0 0 155.16 116.73">
  <g id="coco-v-icon">
    <g>
      <circle cx="106.9" cy="48.26" r="48.26" fill="#b7683a"/>
      <path d="M83.42,12.03c-12.64,14.18-23.43,34.95-14.93,53.77,1.91,4.16,4.55,7.89,7.57,11.33-4.36-4.25-8.06-9.4-9.96-15.32-5.93-18.15,4.57-37.26,17.32-49.79h0Z" fill="#a35625"/>
      <path d="M123.67,12.03c19.6,17.39,31.07,45.21,8.09,65.11,0,0,1.58-1.72,1.58-1.72,3.16-3.39,5.84-7.29,7.64-11.57,7.92-18.75-4.4-38.58-17.31-51.81h0Z" fill="#a35625"/>
      <path d="M112.91,21.66c11.58,14.35,17.29,37.01,4.49,52.37,1.23-2,2.48-3.99,3.34-6.16,6.77-15.34.85-32.87-7.83-46.21h0Z" fill="#a35625"/>
      <path d="M99.62,24.21c-8.77,10.61-15.79,26.3-8.24,39.35.93,1.83,2.21,3.45,3.46,5.09-13.74-13.13-7.26-32.64,4.77-44.44h0Z" fill="#a35625"/>
    </g>
    <g>
      <path d="M21.69,3.21s63.08,28.33,37.56,57.89c0,0-38.3,1.29-37.56-57.89Z" fill="#708c3b"/>
      <path d="M25,8.95c9.94,8.73,31.13,29.64,31.75,43,.06,1.23-.28,2.44-.8,3.52,4.6-10.94-23.32-38.26-30.95-46.51h0Z" fill="#334620"/>
      <path d="M37.03,12.56c1.66,1.6,7.09,11.83,3.12,12.55,1.87-.81-.18-4.67-.61-6.09-.83-2.13-1.76-4.23-2.5-6.47h0Z" fill="#334620"/>
      <path d="M49.5,21.68c.94,2.16,1.83,13.19-2.21,12.2,2.11-.06,1.79-3.98,1.96-5.51.09-2.2.06-4.42.25-6.69h0Z" fill="#334620"/>
      <path d="M60.94,34.54c.45,2.69-.91,15.68-5.38,13.55,2.51.62,3.14-4.09,3.67-5.82.6-2.54,1.06-5.13,1.71-7.73h0Z" fill="#334620"/>
      <path d="M24.26,19.22c2.74,1.3,5.36,2.73,8.05,4.02,1.95.78,6.43,3.5,8.09,1.48-.13.35-.38.7-.74.89-4.27,1.72-12.17-3.64-15.39-6.39h0Z" fill="#334620"/>
      <path d="M28.33,34.71c3.29-.02,6.54.17,9.79.26,2.41.05,4.85.18,7.23-.19.73-.16,1.66-.33,1.9-1.16.03.43-.28.83-.63,1.07-2.52,1.53-5.7,1.32-8.54,1.35-3.29-.12-6.56-.51-9.75-1.32h0Z" fill="#334620"/>
      <path d="M37.32,49.73c3.25-.15,6.47-.09,9.68-.14,1.64-.16,8.9.36,8.44-2.11.2.36.18.87-.12,1.22-3.3,3.06-13.73,1.9-18,1.03h0Z" fill="#334620"/>
    </g>
    <g>
      <path d="M100.22,70.67C62.39,27.62,13.42,35.68,13.42,35.68h0c-3.58.14-5.63.42-5.63.42-.73,1.19-1.43,2.4-2.07,3.67-13.16,25.89-2.85,57.55,23.04,70.71,25.89,13.16,57.55,2.85,70.71-23.04,2.06-4.05,3.54-8.24,4.48-12.48-1.23-1.48-2.47-2.91-3.74-4.28Z" fill="#fff"/>
      <path d="M45.04,68.67c-15.51-7.89-27.38-18.77-33.35-29.38-.67,1.09-1.31,2.21-1.9,3.37-12.08,23.76-2.61,52.81,21.15,64.89,23.76,12.08,52.81,2.61,64.89-21.15,1.89-3.72,3.25-7.56,4.11-11.45-12.11,6.48-33.77,4.46-54.9-6.28Z" fill="#b7683a"/>
      <path d="M99.94,74.96S47.4,104.77,11.69,39.3c0,0,52.75-7.18,88.25,35.66Z" fill="#bdb9a7"/>
      <path d="M11.69,39.3l5.17-.38s31.68,53.13,79.68,32.14l3.41,3.9S48.5,108.07,11.69,39.3Z" fill="#f1efe7"/>
      <path d="M16.85,38.91s44.96-7.39,79.68,32.14l-4.57,1.79s-24.9-34.93-71.63-28.84l-3.48-5.09Z" fill="#f1efe7"/>
      <path d="M70.36,83.71c-5.39,0-10.67-.86-15.84-2.57C26.44,71.81,11.33,39.86,11.18,39.53l1.02-.48c.15.32,15.07,31.84,42.69,41.01,14.13,4.69,29.19,2.8,44.79-5.61l.54.99c-10.2,5.5-20.19,8.26-29.85,8.26Z" fill="#423021"/>
      <path d="M15.03,54.78c-8.75,16.15-6.73,32.94,8.19,44.44-15.78-10.47-18.09-28.92-8.19-44.44h0Z" fill="#a35625"/>
      <path d="M84.63,87.93c-6.37,17.52-23.26,25.98-41.12,20.72,18.16,3.96,33.55-3.73,41.12-20.72h0Z" fill="#a35625"/>
      <path d="M63.02,88.16c-2.85,10.43-13.05,18.26-23.99,16.92-.7-.06-1.4-.13-2.1-.21,2.79,0,5.6.05,8.31-.66,8.27-1.68,14.7-8.4,17.78-16.05h0Z" fill="#a35625"/>
      <path d="M35.28,76.92c-8.79,7.06-11.45,15.69-2.56,24.07-10-7.39-7.16-18.11,2.56-24.07h0Z" fill="#a35625"/>
    </g>
    <g>
      <path d="M149.35,89.99s-64.04-26.82-68.32,16.84c0,0,25.27,31.07,68.32-16.84Z" fill="#708c3b"/>
      <path d="M142.86,91.99c-12.15.57-50.4.65-55.42,12.92,4.77-13.7,42.91-13.74,55.42-12.92h0Z" fill="#334620"/>
      <path d="M131.97,85.44c-2.17,1.19-4.39,2.16-6.54,3.23-1.46.85-5.44,2.28-4.83,4.37-2.21-3.66,8.7-7.46,11.37-7.59h0Z" fill="#334620"/>
      <path d="M116.71,82.96c-1.53,1.95-3.19,3.72-4.74,5.56-1,1.36-4.11,4.26-2.72,5.93-3.48-2.49,5.06-10.32,7.46-11.49h0Z" fill="#334620"/>
      <path d="M99.42,84.27c-1.44,2.57-3.03,5-4.48,7.5-1.04,2.06-2.89,4.39-2.48,6.77.11.32.37.56.67.78-.35-.1-.73-.28-.94-.64-1.86-3.96,4.42-11.74,7.22-14.42h0Z" fill="#334620"/>
      <path d="M135.81,100.77c-3.59-.11-16.74-3.17-15.1-8.26-.75,3.91,12.04,6.78,15.1,8.26h0Z" fill="#334620"/>
      <path d="M121.62,109.98c-2.86-1.94-5.43-4.24-7.79-6.75-1.93-2.25-4.28-4.65-4.74-7.71-.03-.44.06-.94.38-1.25-.39.8.02,1.62.41,2.32,1.3,2.16,3.08,4,4.78,5.86,2.3,2.5,4.69,4.92,6.96,7.52h0Z" fill="#334620"/>
      <path d="M104.42,114.93c-3.66-2.75-11.79-10.23-11.57-15.01.07-.46.41-.86.82-1-2.07,1.6,3.07,6.73,4.16,8.25,2.17,2.58,4.45,5.09,6.59,7.76h0Z" fill="#334620"/>
    </g>
  </g>
</svg>