<?xml version="1.0" encoding="UTF-8"?>
<svg id="Layer_2" data-name="Layer 2" xmlns="http://www.w3.org/2000/svg" viewBox="0 0 155.14 140.72">
  <g id="hazel-icon">
    <g>
      <path d="M37.01,121.59h0s.01,0,.02,0c-.01,0-.02,0-.02,0Z" fill="#c18e53"/>
      <path d="M58.88,86.01c-15.41,3.01-30.17,2.61-42.36-.5-3.08,15.72,2.41,32.69,15.58,43.4l2.55,2.07c18.59,15.12,45.43,12.03,59.95-6.9h0c12.23-15.94,12.7-37.59,2.74-54.05-10.05,7.26-23.35,13.02-38.45,15.97Z" fill="#92391f"/>
      <path d="M87.82,131.11s-18.05,17.14-43.94,5.64c0,0,44.14-20.23,43.94-5.64Z" fill="#bc9064"/>
      <path d="M57.55,93.97c-2.15,6.96-6.71,20.03,2.14,23.91-1.08-.28-2.12-.8-3-1.53-5.69-5.42-2.1-16.3.86-22.38h0Z" fill="#802819"/>
      <path d="M38.49,92.56c1.47,8.12,2.52,16.53,6.57,23.84-5.39-6.44-6.67-15.68-6.57-23.84h0Z" fill="#802819"/>
      <path d="M86.39,81.31c10.76,7.51,16.93,21.41,8.76,33.15-.99,1.51-2.18,2.88-3.41,4.2,10.81-13.19,6.62-26.8-5.35-37.35h0Z" fill="#802819"/>
      <path d="M85.32,94.11c1.19,6.36.81,14.16-4.06,18.95,3.71-5.57,3.89-12.48,4.06-18.95h0Z" fill="#802819"/>
      <path d="M29,89.83c-7.94,10.71-5.73,22.45,4.32,30.78,2.95,2.54,6.25,4.68,9.63,6.66-3.56-1.66-6.98-3.67-10.07-6.14-10.54-8.2-12.92-20.96-3.88-31.3h0Z" fill="#802819"/>
      <path d="M97.38,70.11c.74,3.77-16.24,12.79-37.18,16.88-20.94,4.09-42.94,2.29-43.68-1.48-.74-3.77,17.4-4.65,38.34-8.74,20.94-4.09,41.78-10.43,42.52-6.66Z" fill="#802819"/>
      <path d="M83.39,29.57c-4.34-5.44-25.76-1.33-43.25,12.63-17.5,13.96-28.15,36.35-23.81,41.79,4.34,5.44,16.12-10.02,33.62-23.99,17.5-13.96,37.78-25,33.44-30.44Z" fill="#802819"/>
      <path d="M29.81,55.89l23.91-19.08c8.88-7.08,20.17-9.07,30.37-6.37-6.5-12.4-18.29-21.93-32.9-24.93L28.09.77c-5.36-1.1-10.59.08-14.72,2.88-4.13,2.8-7.15,7.21-8.09,12.57L.66,42.55c-2.88,16.41,3.91,32.54,16.25,42.42-.66-10.83,3.77-21.81,12.9-29.09Z" fill="#92391f"/>
      <path d="M1.32,39.82s.7-10.81,6.3-3.48c1.83,2.4,0-16.8,3.61-13.9,7.97,6.4,15.24,10.25,10.16-9.19-.83-3.18,12.89,1.91,16.98.26,1.49-.6,3.16-2.68,2.21-4.05-3.65-5.24.68-4.9,3.1-5.39,0,0-8.04-3.12-15.45-3.86-7.93-.78-11.77.69-13.66,2.01-5.69,3.97-8.94,10.24-9.51,13.52-.21,1.2-.11,2.32-.33,3.57-.83,4.55-5.21,15.15-3.41,20.5Z" fill="#bc9064"/>
      <path d="M13.67,29.72c1.94,7.83,5.39,23.39,15.49,23.39-1.26.2-2.58.08-3.82-.32-8.07-3.2-10.86-15.26-11.67-23.06h0Z" fill="#802819"/>
      <path d="M25.57,18.08c8.13.77,23.72,4.81,22.12,15.52-.31,1.41-.92,2.71-1.66,3.9.52-1.3,1.01-2.61,1.13-3.98.73-9.86-14.12-13.38-21.59-15.44h0Z" fill="#802819"/>
      <path d="M7.66,45.3c.84,5.28,1.04,11.15,4.54,15.46-4.46-3.41-4.97-10.26-4.54-15.46h0Z" fill="#802819"/>
      <path d="M44.4,14.83c5.16,2.28,10.28,6.92,10.71,12.86-1.67-5.57-6.2-9.49-10.71-12.86h0Z" fill="#802819"/>
    </g>
    <path d="M108.14,10.81h15.65c17.3,0,31.34,14.04,31.34,31.34h0c0,17.3-14.04,31.34-31.34,31.34h0c-17.3,0-31.34-14.04-31.34-31.34v-15.65c0-8.66,7.03-15.69,15.69-15.69Z" transform="translate(117.25 -88.46) rotate(68.33)" fill="#ca7a4a"/>
  </g>
</svg>