<?xml version="1.0" encoding="UTF-8"?>
<svg id="Layer_2" data-name="Layer 2" xmlns="http://www.w3.org/2000/svg" viewBox="0 0 155.16 133.56">
  <g id="maca-icon">
    <g>
      <path d="M115.27,95.22c-10.77-.54-97.13-6.95-65.36-71.98,4.71-9.63,13.11-17.05,23.35-20.22,15.28-4.73,40.98-6.19,77.3,13.12,2.77,1.47,4.53,4.33,4.58,7.47.11,6.68-.11,18.85-2.57,29.49-1.85,8.02-2.64,16.21-3.55,24.39-.96,8.6-11.44,13.56-31.63,17.58-.7.14-1.41.19-2.12.16Z" fill="#5b1911"/>
      <path d="M91.12,108.88c21.58,3.08,35.95-5.67,53.79-23.94,0,0-34.86,16.14-64.64,2.58-24.49-11.15-44.71-39.41-18.93-78.47,0,0-42.93,31.75-22.89,70.98,9,17.61,34.57,26.27,52.66,28.85Z" fill="#6f2312"/>
      <path d="M110.8,90.77c-24.47,2.41-81.15-18.36-49.83-74.94,0,0,23.44-35.13,82.13,8.15,0,0,8.19,17.45,6.67,28.32-.48,3.42-.32,6.78-1.48,10.03-2.47,6.91-4.55,13.95-13.73,20.82-7.61,5.7-14.2,6.68-23.76,7.62Z" fill="#471811"/>
      <path d="M54.97,34.84c2.5-10.39,9.68-18.49,19.3-23.29h0s0,0,0,0c6.82-3.39,14.86-5.12,23.36-4.82,9.05,1.33,10.8.89,23.8,6.26,18.61,9.6,29.49,28.5,25.18,46.37-5.12,21.26-29.79,33.01-55.1,26.23-25.31-6.77-41.67-29.5-36.55-50.76Z" fill="#ddab46"/>
      <path d="M146.62,59.36c-7.75-7.13-15.88-14.09-25.18-19.06-1.64-.83-3.33-1.56-5.06-2.14-2.37-.71-4.89-.95-7.28-1.69-4.89-1.48-9.69-4.29-12.27-8.88,0,0,1.01.24,1.01.24-1.63,1.17-3.32,1.96-5.11,2.65-5.3,2.02-11.13,2.51-16.72,1.89-7.09-.66-15.46-3.49-21.05,2.47,5.24-6.39,14.04-3.94,21.13-3.43,7.17.5,14.92-.49,20.92-4.62,0,0,.63-.46.63-.46,2.3,4.53,7.09,7.39,11.84,8.88,2.38.75,4.88,1.01,7.27,1.76,2.38.82,4.72,1.93,6.88,3.21,8.6,5.2,16.09,11.95,22.98,19.19h0Z" fill="#8c6828"/>
    </g>
    <g>
      <path d="M59.49,113.2c.43-18.19-39.1-24.61-43.76-36,0,0-8.54-2.33-9.32,4.66,0,0-5.31-1.56-5.7,2.59s0,27.45,5.95,33.4,15.7,13.11,15.7,13.11l18.81.55,6.41-2.26s11.65-4.92,11.91-16.05Z" fill="#ddbe74"/>
      <path d="M47.58,129.25s-7.65,3.49-16.81,4.19c-15.27,1.16-34.75-5.46-30.05-48.99,0,0,3.1,54.9,46.86,44.8Z" fill="#ddab46"/>
    </g>
  </g>
</svg>