<?xml version="1.0" encoding="UTF-8"?>
<svg id="Layer_2" data-name="Layer 2" xmlns="http://www.w3.org/2000/svg" viewBox="0 0 155.16 149.71">
  <g id="pista-icon">
    <g>
      <path d="M61.96,105.42s-6.25-25.96-24.62-14.15c-18.37,11.81-32.71,43.63-32.71,43.63l5.98,6.45,23.25-2.99,28.19-25.53-.09-7.41Z" fill="#ab2535"/>
      <path d="M64.73,101.2s15.98,16.3-18.39,41.78c-8.7,6.45-20.05,8.56-30.29,5.02-4.59-1.59-9.35-4.38-13.74-9.06,0,0-16.66-54.7,39.47-55.47,1.01-.01,1.68,1.05,1.23,1.95-4.44,8.74-22.94,44.14-35.07,50.93,0,0,40.93-14.4,51.83-27.38" fill="#e3bc99"/>
    </g>
    <g>
      <path d="M143.8,19.96s-43.09-7.24-68.02,10.55c-3.86,2.76-6.5,5.8-8.21,8.99l31.13,5.85-22.46,32.28c.34.43.54.66.54.66l8.45,6.05,46.75-21.38,17.83-32.07-6.01-10.94Z" fill="#ab2535"/>
      <path d="M71.81,37.16s-34.99,21.31,4.97,41.12h21.68l11.64-55.36-38.29,14.23Z" fill="#8ea343"/>
      <path d="M58.97,77.35s13.63,39.34,79.41,1.86c.21-.12.41-.27.59-.43,2.65-2.54,23.53-23.82,13.47-55.13,0,0-58.74-60.32-98.27,11.7-1.06,1.93.32,4.31,2.52,4.35,16.63.3,72.17.46,88.58-10.43,0,0-45.92,47.54-70.41,49.27" fill="#e3bc99"/>
    </g>
  </g>
</svg>